<svg width="114" height="114" viewBox="0 0 114 114" fill="none" xmlns="http://www.w3.org/2000/svg">
<path d="M55.8204 10.3598C56.5227 9.84753 57.4755 9.84753 58.1778 10.3598L68.9466 18.2156C69.2899 18.466 69.704 18.6006 70.129 18.5998L83.4606 18.5752C84.3299 18.5736 85.1007 19.1337 85.3677 19.9609L89.4616 32.6465C89.5921 33.0509 89.8481 33.4033 90.1924 33.6525L100.992 41.4672C101.696 41.9768 101.991 42.8829 101.72 43.7092L97.5774 56.3783C97.4453 56.7823 97.4453 57.2177 97.5774 57.6216L101.72 70.2908C101.991 71.117 101.696 72.0232 100.992 72.5328L90.1924 80.3475C89.8481 80.5967 89.5921 80.9491 89.4616 81.3535L85.3677 94.0391C85.1007 94.8663 84.3299 95.4264 83.4606 95.4248L70.129 95.4002C69.704 95.3994 69.2899 95.534 68.9466 95.7844L58.1778 103.64C57.4755 104.152 56.5227 104.152 55.8204 103.64L45.0516 95.7844C44.7083 95.534 44.2941 95.3994 43.8692 95.4002L30.5375 95.4248C29.6683 95.4264 28.8975 94.8663 28.6305 94.0391L24.5366 81.3535C24.4061 80.9491 24.1501 80.5967 23.8058 80.3475L13.0062 72.5328C12.3019 72.0232 12.0075 71.117 12.2777 70.2908L16.4208 57.6216C16.5529 57.2177 16.5529 56.7823 16.4208 56.3783L12.2777 43.7092C12.0075 42.8829 12.3019 41.9768 13.0062 41.4672L23.8058 33.6525C24.1501 33.4033 24.4061 33.0509 24.5366 32.6465L28.6305 19.9609C28.8975 19.1337 29.6683 18.5736 30.5375 18.5752L43.8692 18.5998C44.2941 18.6006 44.7083 18.466 45.0516 18.2156L55.8204 10.3598Z" fill="white" stroke="white" stroke-width="12" stroke-linecap="round" stroke-linejoin="round"/>
<path d="M40.375 57L50.8358 67.4608C51.6168 68.2418 52.8832 68.2418 53.6642 67.4608L76 45.125" stroke="#35C28D" stroke-width="12" stroke-linecap="round" stroke-linejoin="round"/>
</svg>
