<svg width="50" height="37" viewBox="0 0 50 37" fill="none" xmlns="http://www.w3.org/2000/svg">
<path d="M3.44824 17.2414V28.4483H8.62066V17.2414H3.44824ZM6.89652 26.7241H5.17238V18.9655H6.89652V26.7241Z" fill="white"/>
<path d="M5.17249 18.9655H6.89662V26.7241H5.17249V18.9655ZM12.9311 8.6207V28.4483H18.1035V8.6207H12.9311ZM16.3794 26.7241H14.6552V10.3448H16.3794V26.7241Z" fill="white"/>
<path d="M14.6552 10.3448H16.3793V26.7241H14.6552V10.3448ZM22.4138 14.6552V28.4483H27.5862V14.6552H22.4138ZM25.862 26.7241H24.1379V16.3793H25.862V26.7241Z" fill="white"/>
<path d="M24.1379 16.3793H25.8621V26.7241H24.1379V16.3793ZM31.8966 11.2069V28.4483H37.069V11.2069H31.8966ZM35.3448 26.7241H33.6207V12.931H35.3448V26.7241Z" fill="white"/>
<path d="M33.6207 12.931H35.3449V26.7241H33.6207V12.931ZM41.3793 5.17242V28.4483H46.5518V5.17242H41.3793ZM44.8276 26.7241H43.1035V6.89656H44.8276V26.7241Z" fill="white"/>
<path d="M43.1034 6.89655H44.8276V26.7241H43.1034V6.89655ZM41.3793 0H46.5517V1.72414H41.3793V0ZM31.8966 6.03448H37.069V7.75862H31.8966V6.03448ZM22.4138 9.48276H27.5862V11.2069H22.4138V9.48276ZM12.931 3.44828H18.1034V5.17241H12.931V3.44828ZM3.44828 12.069H8.62069V13.7931H3.44828V12.069ZM47.4138 30.1724H2.58621C1.9003 30.1724 1.24249 30.4449 0.757483 30.9299C0.272475 31.4149 0 32.0727 0 32.7586V33.6207C0 34.3066 0.272475 34.9644 0.757483 35.4494C1.24249 35.9344 1.9003 36.2069 2.58621 36.2069H47.4138C48.0997 36.2069 48.7575 35.9344 49.2425 35.4494C49.7275 34.9644 50 34.3066 50 33.6207V32.7586C50 32.0727 49.7275 31.4149 49.2425 30.9299C48.7575 30.4449 48.0997 30.1724 47.4138 30.1724ZM48.2759 33.6207C48.2759 33.8493 48.185 34.0686 48.0234 34.2303C47.8617 34.3919 47.6424 34.4828 47.4138 34.4828H2.58621C2.35757 34.4828 2.1383 34.3919 1.97663 34.2303C1.81496 34.0686 1.72414 33.8493 1.72414 33.6207V32.7586C1.72414 32.53 1.81496 32.3107 1.97663 32.149C2.1383 31.9874 2.35757 31.8966 2.58621 31.8966H47.4138C47.6424 31.8966 47.8617 31.9874 48.0234 32.149C48.185 32.3107 48.2759 32.53 48.2759 32.7586V33.6207Z" fill="white"/>
<path d="M47.4138 31.8965H2.58619C2.11008 31.8965 1.72412 32.2825 1.72412 32.7586V33.6207C1.72412 34.0968 2.11008 34.4828 2.58619 34.4828H47.4138C47.8899 34.4828 48.2758 34.0968 48.2758 33.6207V32.7586C48.2758 32.2825 47.8899 31.8965 47.4138 31.8965Z" fill="white"/>
</svg>
