<svg width="51" height="43" viewBox="0 0 51 43" fill="none" xmlns="http://www.w3.org/2000/svg">
<path d="M39.6278 17.7846C37.8695 17.8257 36.4905 19.0905 36.4905 20.5854V25.0223C36.4905 26.6205 35.7427 28.1533 34.4141 29.2837L32.8918 30.577H25.2403C27.8215 30.5539 29.9061 28.7684 29.9061 26.5684C29.9061 24.354 27.7945 22.5586 25.1899 22.5586C22.5853 22.5586 20.4736 24.354 20.4736 26.5684C20.4736 28.7684 22.5581 30.5539 25.1394 30.577H17.4877L15.9655 29.2837C14.6364 28.1533 13.8895 26.6206 13.889 25.0223V20.5854C13.889 19.0905 12.51 17.8257 10.7517 17.7846C8.9272 17.7426 7.43262 18.9872 7.43262 20.5292V25.5203C7.43262 28.2129 8.53009 30.8214 10.5383 32.9034L15.8805 38.4397V41.7402C15.8805 42.4356 16.5443 43 17.3622 43H33.0173C33.8352 43 34.499 42.4356 34.499 41.7402V38.4397L39.8412 32.9034C41.8494 30.8217 42.9469 28.2126 42.9469 25.5203V20.5292C42.9469 18.9872 41.4523 17.7426 39.6278 17.7846ZM11.797 6.84476H14.261L11.7032 9.01945C11.1245 9.51143 11.1245 10.309 11.7032 10.801C11.9925 11.047 12.3717 11.17 12.7509 11.17C13.13 11.17 13.5093 11.0471 13.7986 10.801L18.8859 6.47582C19.093 6.29961 19.234 6.07515 19.2912 5.83081C19.3483 5.58646 19.3189 5.3332 19.2068 5.10304C19.0947 4.87288 18.9048 4.67614 18.6612 4.5377C18.4176 4.39925 18.1312 4.32532 17.8382 4.32523H15.3742L17.932 2.15054C18.5107 1.65856 18.5107 0.860965 17.932 0.368985C17.3534 -0.122995 16.4152 -0.122995 15.8365 0.368985L10.7492 4.69418C10.5421 4.87039 10.401 5.09486 10.3439 5.33921C10.2868 5.58356 10.3162 5.83683 10.4283 6.06699C10.5404 6.29716 10.7303 6.4939 10.9739 6.63233C11.2176 6.77077 11.504 6.8447 11.797 6.84476ZM34.517 6.88675H36.9809L34.4231 9.06144C33.8444 9.55342 33.8444 10.351 34.4231 10.843C34.7124 11.089 35.0916 11.212 35.4708 11.212C35.8499 11.212 36.2292 11.0891 36.5184 10.843L41.6057 6.51781C41.8129 6.3416 41.9539 6.11714 42.0111 5.8728C42.0682 5.62845 42.0388 5.3752 41.9267 5.14503C41.8146 4.91487 41.6247 4.71813 41.3811 4.57969C41.1375 4.44124 40.8511 4.36731 40.5581 4.36723H38.0941L40.652 2.19254C41.2307 1.70056 41.2307 0.902957 40.652 0.410977C40.0734 -0.0810028 39.1352 -0.0810028 38.5565 0.410977L33.4692 4.73617C33.2621 4.91238 33.121 5.13685 33.0639 5.3812C33.0068 5.62555 33.0361 5.87882 33.1483 6.10899C33.2604 6.33915 33.4503 6.53589 33.6939 6.67433C33.9376 6.81276 34.224 6.88669 34.517 6.88675Z" fill="white"/>
<path d="M21.1278 14.4664H25.6737L21.3629 18.1314C20.7877 18.6204 20.7879 19.425 21.3629 19.9136C21.9375 20.4019 22.883 20.402 23.458 19.9136L25.245 18.3943L30.2987 14.0977C30.506 13.9215 30.6472 13.697 30.7045 13.4526C30.7619 13.2082 30.7327 12.9548 30.6208 12.7245C30.5085 12.4944 30.3185 12.2977 30.0748 12.1593C29.8312 12.0208 29.5447 11.9469 29.2516 11.9468H24.7057L29.0165 8.28176C29.5954 7.78961 29.5954 6.99176 29.0165 6.49962C28.4377 6.00831 27.4992 6.00831 26.9214 6.49962L25.245 7.92483L20.0807 12.3155C19.8735 12.4918 19.7324 12.7163 19.675 12.9606C19.6177 13.205 19.6468 13.4583 19.7586 13.6887C19.871 13.9187 20.061 14.1154 20.3047 14.2538C20.5483 14.3922 20.8347 14.4661 21.1278 14.4664ZM44.9705 10.0943C44.2801 9.72075 43.3642 9.89376 42.9248 10.4806L40.8619 13.236C40.4226 13.8229 40.6259 14.6016 41.3163 14.9751C41.5535 15.1039 41.8291 15.1724 42.1105 15.1723C42.6002 15.1723 43.0796 14.9661 43.362 14.5888L45.4249 11.8334C45.8643 11.2466 45.6608 10.4679 44.9705 10.0943ZM50.2662 15.4533C49.8445 14.8571 48.9343 14.6643 48.2329 15.0228L44.9404 16.7058C44.2389 17.0643 44.0122 17.8383 44.4339 18.4345C44.7119 18.8277 45.2022 19.0454 45.7052 19.0454C45.9651 19.0454 46.2283 18.9872 46.4673 18.865L49.7598 17.1821C50.4611 16.8236 50.6878 16.0496 50.2662 15.4533ZM9.16173 14.9752C9.85212 14.6017 10.0555 13.823 9.61613 13.2361L7.55335 10.4806C7.11397 9.89367 6.19806 9.72075 5.50776 10.0943C4.81747 10.4679 4.61398 11.2466 5.05336 11.8335L7.11614 14.5889C7.39856 14.9662 7.87776 15.1724 8.36752 15.1724C8.64896 15.1724 8.92453 15.104 9.16173 14.9752ZM5.53789 16.7057L2.24537 15.0228C1.54402 14.6643 0.633636 14.857 0.212032 15.4533C-0.209571 16.0496 0.0171345 16.8236 0.718392 17.182L4.01091 18.865C4.24088 18.983 4.50441 19.0453 4.77302 19.0453C5.27582 19.0453 5.76638 18.8275 6.04435 18.4345C6.46596 17.8383 6.23925 17.0643 5.53789 16.7057Z" fill="white"/>
</svg>
