<svg width="47" height="36" viewBox="0 0 47 36" fill="none" xmlns="http://www.w3.org/2000/svg">
<path d="M17.9004 16.5234C18.6596 16.5234 19.2773 17.1412 19.2773 17.9004C19.2773 18.6596 18.6596 19.2773 17.9004 19.2773C17.1412 19.2773 16.5234 18.6596 16.5234 17.9004C16.5234 17.1412 17.1412 16.5234 17.9004 16.5234Z" fill="white"/>
<path d="M19.2773 11.1533V14.0064C18.8353 13.8492 18.3695 13.7691 17.9004 13.7695C15.6229 13.7695 13.7695 15.6229 13.7695 17.9004C13.7695 20.1779 15.6229 22.0312 17.9004 22.0312C18.3832 22.0312 18.8468 21.9477 19.2773 21.7944V24.6475C18.8266 24.7393 18.3658 24.7852 17.9004 24.7852C14.1046 24.7852 11.0156 21.6962 11.0156 17.9004C11.0156 14.1046 14.1046 11.0156 17.9004 11.0156C18.3658 11.0156 18.8266 11.0615 19.2773 11.1533Z" fill="white"/>
<path d="M8.26172 17.9004C8.26172 23.2154 12.5854 27.5391 17.9004 27.5391C18.364 27.5391 18.8239 27.5069 19.2773 27.4408V35.8008H15.1465C14.3864 35.8008 13.7695 35.1839 13.7695 34.4238V32.4741C12.6432 32.1537 11.5572 31.7002 10.5227 31.1191L9.13746 32.5053C8.59953 33.0432 7.72838 33.0432 7.19045 32.5053L3.29551 28.6103C2.75739 28.0722 2.75951 27.1993 3.29551 26.6633L4.68164 25.2772C4.1037 24.2524 3.6489 23.1628 3.32672 22.0312H1.37695C0.616875 22.0312 0 21.4144 0 20.6543V15.1465C0 14.3864 0.616875 13.7695 1.37695 13.7695H3.32672C3.64709 12.6432 4.09965 11.5572 4.68164 10.5227L3.29551 9.13746C2.75951 8.60146 2.75739 7.72856 3.29551 7.19045L7.19045 3.29551C7.72838 2.75758 8.59953 2.75758 9.13746 3.29551L10.5236 4.68164C11.5484 4.1037 12.638 3.6489 13.7695 3.32672V1.37695C13.7695 0.616875 14.3864 0 15.1465 0H19.2773V8.35994C18.8239 8.29385 18.364 8.26172 17.9004 8.26172C12.5854 8.26172 8.26172 12.5854 8.26172 17.9004ZM38.7383 0.805976V8.26172H46.194L38.7383 0.805976ZM26.1621 8.26172H31.8535C32.6136 8.26172 33.2305 8.87859 33.2305 9.63867C33.2305 10.3988 32.6136 11.0156 31.8535 11.0156H26.1621C25.402 11.0156 24.7852 10.3988 24.7852 9.63867C24.7852 8.87859 25.402 8.26172 26.1621 8.26172ZM40.1152 27.5391H26.1621C25.402 27.5391 24.7852 26.9222 24.7852 26.1621C24.7852 25.402 25.402 24.7852 26.1621 24.7852H40.1152C40.8753 24.7852 41.4922 25.402 41.4922 26.1621C41.4922 26.9222 40.8753 27.5391 40.1152 27.5391ZM40.1152 22.0312H26.1621C25.402 22.0312 24.7852 21.4144 24.7852 20.6543C24.7852 19.8942 25.402 19.2773 26.1621 19.2773H40.1152C40.8753 19.2773 41.4922 19.8942 41.4922 20.6543C41.4922 21.4144 40.8753 22.0312 40.1152 22.0312ZM40.1152 16.5234H26.1621C25.402 16.5234 24.7852 15.9066 24.7852 15.1465C24.7852 14.3864 25.402 13.7695 26.1621 13.7695H40.1152C40.8753 13.7695 41.4922 14.3864 41.4922 15.1465C41.4922 15.9066 40.8753 16.5234 40.1152 16.5234ZM37.3613 11.0156C36.6012 11.0156 35.9844 10.3988 35.9844 9.63867V0H22.0312V35.8008H45.623C46.3831 35.8008 47 35.1839 47 34.4238V11.0156H37.3613Z" fill="white"/>
</svg>
